<?xml version="1.0" encoding="UTF-8" standalone="no"?>
<svg
   width="16"
   height="16"
   version="1.1"
   id="svg4"
   sodipodi:docname="tac-accessories-dictionary-symbolic.svg"
   inkscape:version="1.4.2 (ebf0e940d0, 2025-05-08)"
   xml:space="preserve"
   inkscape:export-filename="tac-dictionary-symbolic.svg"
   inkscape:export-xdpi="96"
   inkscape:export-ydpi="96"
   xmlns:inkscape="http://www.inkscape.org/namespaces/inkscape"
   xmlns:sodipodi="http://sodipodi.sourceforge.net/DTD/sodipodi-0.dtd"
   xmlns="http://www.w3.org/2000/svg"
   xmlns:svg="http://www.w3.org/2000/svg"><defs
     id="defs4" /><sodipodi:namedview
     id="namedview4"
     pagecolor="#currentColor"
     bordercolor="#currentColor"
     borderopacity="0.25"
     inkscape:showpageshadow="2"
     inkscape:pageopacity="0.0"
     inkscape:pagecheckerboard="0"
     inkscape:deskcolor="#currentColor"
     showgrid="true"
     inkscape:zoom="16"
     inkscape:cx="2.78125"
     inkscape:cy="14.4375"
     inkscape:window-width="5120"
     inkscape:window-height="1371"
     inkscape:window-x="0"
     inkscape:window-y="0"
     inkscape:window-maximized="1"
     inkscape:current-layer="svg4"><inkscape:grid
       id="grid4"
       units="px"
       originx="0"
       originy="0"
       spacingx="1"
       spacingy="1"
       empcolor="#currentColor"
       empopacity="0.30196078"
       color="#currentColor"
       opacity="0.14901961"
       empspacing="5"
       enabled="true"
       visible="true" /><inkscape:page
       x="0"
       y="0"
       width="16"
       height="16"
       id="page2"
       margin="0"
       bleed="0" /></sodipodi:namedview><g
     fill="#currentColor"
     id="g4"
     style="stroke:#000000;stroke-width:0.3;stroke-dasharray:none;stroke-opacity:1"
     transform="matrix(1.0616923,0,0,1.0616923,0.03730775,0.48830649)"><path
       d="M 9.57,1.184 C 9.003,1.262 8.319,1.534 7.555,1.937 6.014,1.093 4.814,1.041 3.807,1.299 2.737,1.573 1.869,2.021 0.516,1.98 L 0,1.965 v 10.81 h 0.5 c 1.322,0 2.48,-0.601 3.555,-0.867 1.075,-0.265 1.992,-0.296 3.144,0.738 l 0.338,0.305 0.336,-0.308 c 1.119,-1.033 2.01,-1.004 3.074,-0.74 1.065,0.263 2.224,0.864 3.55,0.872 L 15,12.779 V 1.982 L 14.482,2 C 12.966,2.055 12.212,1.606 11.232,1.316 A 3.84,3.84 0 0 0 9.57,1.184 Z m 0.11,0.96 c 0.478,-0.07 0.854,0.01 1.267,0.131 0.726,0.215 1.679,0.602 3.053,0.664 v 8.707 C 13.125,11.519 12.222,11.187 11.188,10.932 10.068,10.655 8.78,10.769 7.533,11.732 6.255,10.765 4.947,10.658 3.816,10.937 2.773,11.195 1.87,11.527 1,11.648 V 2.918 C 2.274,2.845 3.247,2.474 4.055,2.268 4.979,2.031 5.782,1.981 7.297,2.891 L 7.549,3.043 7.803,2.896 C 8.62,2.43 9.2,2.214 9.68,2.145 Z"
       style="line-height:normal;font-variant-ligatures:normal;font-variant-position:normal;font-variant-caps:normal;font-variant-numeric:normal;font-variant-alternates:normal;font-feature-settings:normal;text-indent:0;text-align:start;text-decoration-line:none;text-decoration-style:solid;text-decoration-color:#000000;text-transform:none;text-orientation:mixed;shape-padding:0;isolation:auto;mix-blend-mode:normal;stroke:#000000;stroke-width:0.3;stroke-dasharray:none;stroke-opacity:1"
       color="#currentColor"
       font-weight="400"
       font-family="sans-serif"
       overflow="visible"
       id="path1" /><path
       d="M 7,2.397 H 8 V 12 H 7 Z"
       id="path2"
       style="stroke:#000000;stroke-width:0.3;stroke-dasharray:none;stroke-opacity:1" /></g><path
     d="m 9.0616927,6.6222683 v 0.739179 h 2.0733843 v -0.739179 z m 2.5917313,0 v 0.739179 h 1.555038 v -0.739179 z m 2.073384,0 v 0.739179 h 0.518346 V 6.6222683 Z M 9.0616927,8.1006278 V 8.839807 H 10.098385 V 8.1006278 Z m 1.5550383,0 V 8.839807 H 12.17177 V 8.1006278 Z m 2.073385,0 V 8.839807 h 1.555038 V 8.1006278 Z"
     fill="currentColor"
     id="path1-3"
     sodipodi:nodetypes="cccccccccccccccccccccccccccccc"
     style="stroke-width:0.618991" /></svg>
