<?xml version="1.0" encoding="UTF-8" standalone="no"?>
<svg
   width="16"
   height="16"
   version="1.1"
   id="svg1"
   sodipodi:docname="tac-search-entire-word-symbolic.svg"
   inkscape:export-filename="tac-references-symbolic.png"
   inkscape:export-xdpi="96"
   inkscape:export-ydpi="96"
   xmlns:inkscape="http://www.inkscape.org/namespaces/inkscape"
   xmlns:sodipodi="http://sodipodi.sourceforge.net/DTD/sodipodi-0.dtd"
   xmlns="http://www.w3.org/2000/svg"
   xmlns:svg="http://www.w3.org/2000/svg">
  <defs
     id="defs1" />
  <sodipodi:namedview
     id="namedview1"
     pagecolor="#ffffff"
     bordercolor="#000000"
     borderopacity="0.25"
     inkscape:showpageshadow="2"
     inkscape:pageopacity="0.0"
     inkscape:pagecheckerboard="0"
     inkscape:deskcolor="#d1d1d1">
    <inkscape:page
       x="0"
       y="0"
       width="16"
       height="16"
       id="page2"
       margin="0"
       bleed="0" />
  </sodipodi:namedview>
  <path
     fill="currentColor"
     d="m 11.573973,1.8811673 c 1.455511,0.020137 2.619109,1.2163896 2.59897,2.6718997 -0.02001,1.4488371 -1.205806,2.6098214 -2.654743,2.5992078 l -0.0235,0.7067113 c -0.02305,1.6659585 0.15731,2.8101889 0.546226,3.4363399 0.388861,0.626152 1.062898,1.085428 2.022623,1.164049 l -0.02431,1.756957 C 10.561095,14.168206 8.7968526,12.084544 8.8560641,7.8053145 L 8.9020732,4.4801367 C 8.9222125,3.0246267 10.118463,1.861028 11.573973,1.8811673 Z M 4.546147,1.7839256 c 1.45551,0.020139 2.6191086,1.2163906 2.5989694,2.6719007 -0.020017,1.4488368 -1.2058064,2.609821 -2.654742,2.5992075 l -0.023478,0.7067114 c -0.023052,1.6659584 0.157308,2.8101888 0.5462238,3.4363398 0.3888447,0.626152 1.0628801,1.085427 2.0226052,1.164049 l -0.02431,1.756957 C 3.5332735,14.070965 1.7690313,11.987303 1.8282419,7.7080736 L 1.8742513,4.3828954 C 1.8943887,2.9273852 3.0906409,1.7637866 4.546152,1.783926 Z"
     id="path1"
     sodipodi:nodetypes="sccccccssssccccccsss"
     style="stroke-width:1.75713" />
</svg>
